<svg xmlns="http://www.w3.org/2000/svg" width="820" height="270" viewBox="0 0 820 270" role="img" aria-labelledby="title desc">
  <title id="title">Modelos e expressões pixel-art do Claw'd</title>
  <desc id="desc">Quatro cartões mostram os modelos Clássico, Mini, Pinças e Guardião com quatro estilos de rosto.</desc>
  <defs>
    <symbol id="classic" viewBox="0 0 44 32">
      <path fill="currentColor" d="M8 0h28v12H8zM0 12h44v8H0zM8 20h28v4H8zM8 24h4v8H8zM16 24h4v8h-4zM24 24h4v8h-4zM32 24h4v8h-4z"/>
    </symbol>
    <symbol id="mini" viewBox="0 0 44 32">
      <path fill="currentColor" d="M12 0h20v12H12zM4 12h36v8H4zM12 20h20v4H12zM12 24h8v8h-8zM24 24h8v8h-8z"/>
    </symbol>
    <symbol id="claws" viewBox="0 0 44 32">
      <path fill="currentColor" d="M8 0h28v4H8zM0 4h44v12H0zM4 16h36v4H4zM8 20h28v4H8zM8 24h4v8H8zM16 24h4v8h-4zM24 24h4v8h-4zM32 24h4v8h-4z"/>
    </symbol>
    <symbol id="guardian" viewBox="0 0 44 32">
      <path fill="currentColor" d="M4 0h36v12H4zM0 12h44v8H0zM4 20h36v4H4zM4 24h4v8H4zM12 24h4v8h-4zM28 24h4v8h-4zM36 24h4v8h-4z"/>
    </symbol>
    <style>
      text { font-family: "Courier New", monospace; }
      .card { fill: #171a2b; stroke: #303755; stroke-width: 1; }
      .pixel { shape-rendering: crispEdges; }
      .index { fill: #ff5268; font-size: 10px; font-weight: 900; letter-spacing: 1px; }
      .name { fill: #f7f8ff; font-size: 15px; font-weight: 900; }
      .face { fill: #99a2c9; font-size: 11px; font-weight: 700; }
      .desc { fill: #737ca5; font-size: 10px; }
      @media (prefers-reduced-motion: no-preference) {
        .pet { animation: clawd-gallery-bob 2.8s steps(2, end) infinite; }
        .card:nth-of-type(2) .pet { animation-delay: -.6s; }
        .card:nth-of-type(3) .pet { animation-delay: -1.2s; }
        .card:nth-of-type(4) .pet { animation-delay: -1.8s; }
      }
      @keyframes clawd-gallery-bob { 0%,100% { transform: translateY(0); } 50% { transform: translateY(-3px); } }
    </style>
  </defs>

  <rect width="820" height="270" rx="16" fill="#0d0f19"/>
  <text x="22" y="28" fill="#ffffff" font-size="17" font-weight="900">MODELOS × ROSTOS</text>
  <text x="798" y="28" text-anchor="end" fill="#6f789e" font-size="11">cada combinação preserva a grade 4 px</text>

  <g class="card" transform="translate(18 46)">
    <rect width="190" height="174" rx="12"/>
    <text x="14" y="22" class="index">01</text>
    <g class="pixel" color="#e11920" transform="translate(51 42) scale(2)">
      <g class="pet"><use href="#classic"/><path fill="#08080b" d="M12 4h4v4h-4zM28 4h4v4h-4z"/></g>
    </g>
    <text x="95" y="127" text-anchor="middle" class="name">CLÁSSICO</text>
    <text x="95" y="146" text-anchor="middle" class="face">ROSTO CLÁSSICO</text>
    <text x="95" y="162" text-anchor="middle" class="desc">fiel à referência</text>
  </g>

  <g class="card" transform="translate(216 46)">
    <rect width="190" height="174" rx="12"/>
    <text x="14" y="22" class="index">02</text>
    <g class="pixel" color="#ff9f43" transform="translate(51 42) scale(2)">
      <g class="pet" style="animation-delay:-.6s"><use href="#mini"/><path fill="#43c6ff" d="M12 4h4v4h-4zM28 4h4v4h-4z"/><path fill="#ffffff" d="M12 4h1v1h-1zM28 4h1v1h-1z"/></g>
    </g>
    <text x="95" y="127" text-anchor="middle" class="name">MINI</text>
    <text x="95" y="146" text-anchor="middle" class="face">ROSTO BRILHO</text>
    <text x="95" y="162" text-anchor="middle" class="desc">compacto e expressivo</text>
  </g>

  <g class="card" transform="translate(414 46)">
    <rect width="190" height="174" rx="12"/>
    <text x="14" y="22" class="index">03</text>
    <g class="pixel" color="#35a7ff" transform="translate(51 42) scale(2)">
      <g class="pet" style="animation-delay:-1.2s"><use href="#claws"/><path fill="#08080b" d="M12 4h4v4h-4zM28 4h4v4h-4zM11 2h6v2h-6zM27 2h6v2h-6z"/></g>
    </g>
    <text x="95" y="127" text-anchor="middle" class="name">PINÇAS</text>
    <text x="95" y="146" text-anchor="middle" class="face">ROSTO FOCADO</text>
    <text x="95" y="162" text-anchor="middle" class="desc">alcance lateral maior</text>
  </g>

  <g class="card" transform="translate(612 46)">
    <rect width="190" height="174" rx="12"/>
    <text x="14" y="22" class="index">04</text>
    <g class="pixel" color="#a66cff" transform="translate(51 42) scale(2)">
      <g class="pet" style="animation-delay:-1.8s"><use href="#guardian"/><path fill="#14121d" d="M11 6h6v1h-6zM27 6h6v1h-6z"/></g>
    </g>
    <text x="95" y="127" text-anchor="middle" class="name">GUARDIÃO</text>
    <text x="95" y="146" text-anchor="middle" class="face">ROSTO SONOLENTO</text>
    <text x="95" y="162" text-anchor="middle" class="desc">silhueta mais robusta</text>
  </g>

  <g transform="translate(18 238)">
    <rect width="4" height="12" fill="#ff5268"/>
    <text x="14" y="10" fill="#9aa3c9" font-size="11">CORPO ESTÁTICO</text>
    <rect x="160" width="4" height="12" fill="#ff5268"/>
    <text x="174" y="10" fill="#9aa3c9" font-size="11">PERNAS SEPARADAS</text>
    <rect x="340" width="4" height="12" fill="#ff5268"/>
    <text x="354" y="10" fill="#9aa3c9" font-size="11">OLHOS CUSTOMIZÁVEIS</text>
    <rect x="558" width="4" height="12" fill="#ff5268"/>
    <text x="572" y="10" fill="#9aa3c9" font-size="11">SKINS + 2 SLOTS</text>
  </g>
</svg>
